<?xml version="1.0" encoding="UTF-8" standalone="no"?>
<!-- Created with Inkscape (http://www.inkscape.org/) -->

<svg
   xmlns:dc="http://purl.org/dc/elements/1.1/"
   xmlns:cc="http://creativecommons.org/ns#"
   xmlns:rdf="http://www.w3.org/1999/02/22-rdf-syntax-ns#"
   xmlns:svg="http://www.w3.org/2000/svg"
   xmlns="http://www.w3.org/2000/svg"
   xmlns:sodipodi="http://sodipodi.sourceforge.net/DTD/sodipodi-0.dtd"
   xmlns:inkscape="http://www.inkscape.org/namespaces/inkscape"
   width="210mm"
   height="297mm"
   viewBox="0 0 744.09448819 1052.3622047"
   id="svg3464"
   version="1.1"
   inkscape:version="0.91 r13725"
   sodipodi:docname="art-set-01.svg">
  <defs
     id="defs3466" />
  <sodipodi:namedview
     id="base"
     pagecolor="#ffffff"
     bordercolor="#666666"
     borderopacity="1.0"
     inkscape:pageopacity="0.0"
     inkscape:pageshadow="2"
     inkscape:zoom="11.2"
     inkscape:cx="43.874639"
     inkscape:cy="1032.1115"
     inkscape:document-units="px"
     inkscape:current-layer="entities"
     showgrid="false"
     inkscape:window-width="2560"
     inkscape:window-height="1377"
     inkscape:window-x="1912"
     inkscape:window-y="-8"
     inkscape:window-maximized="1" />
  <metadata
     id="metadata3469">
    <rdf:RDF>
      <cc:Work
         rdf:about="">
        <dc:format>image/svg+xml</dc:format>
        <dc:type
           rdf:resource="http://purl.org/dc/dcmitype/StillImage" />
        <dc:title />
      </cc:Work>
    </rdf:RDF>
  </metadata>
  <g
     inkscape:label="Layer 1"
     inkscape:groupmode="layer"
     id="entities">
    <path
       id="entity_plant"
       style="fill:none;fill-rule:evenodd;stroke:#000000;stroke-width:1px;stroke-linecap:butt;stroke-linejoin:miter;stroke-opacity:1"
       d="m 20.892857,48.969345 c 0.143162,-0.169619 0.131861,-0.443672 0.267857,-0.625 0.101015,-0.134687 0.263754,-0.21706 0.357143,-0.357143 0.371586,-0.557379 0.02976,-0.148809 0.267857,-0.625 0.07761,-0.155219 0.190248,-0.291209 0.267857,-0.446428 0.25553,-0.511059 -0.05548,-0.05635 0.178572,-0.446429 0.05521,-0.09202 0.138718,-0.168224 0.178571,-0.267857 0.03187,-0.07967 -0.03052,-0.354876 0,-0.446429 0.02105,-0.06313 0.07834,-0.112927 0.08929,-0.178571 0.01957,-0.117428 0,-0.238095 0,-0.357143 0,-0.119048 0,-0.238095 0,-0.357143 0,-0.07477 0.01698,-0.37853 0,-0.446428 -0.01614,-0.06456 -0.07623,-0.113315 -0.08929,-0.178572 -0.01751,-0.08755 0,-0.178571 0,-0.267857 0,-0.05952 0.01882,-0.122102 0,-0.178571 -0.01331,-0.03993 -0.08237,-0.04777 -0.08929,-0.08929 -0.02446,-0.146785 0.02446,-0.299644 0,-0.446429 -0.0069,-0.04152 -0.08237,-0.04777 -0.08929,-0.08929 -0.02446,-0.146785 0,-0.29762 0,-0.446429 0,-0.08929 0.01751,-0.180305 0,-0.267857 -0.01305,-0.06526 -0.06457,-0.116782 -0.08929,-0.178572 -0.03495,-0.08738 -0.05952,-0.178571 -0.08929,-0.267857 -0.02976,-0.08929 -0.05952,-0.178571 -0.08929,-0.267857 -0.02976,-0.08929 -0.0472,-0.183678 -0.08929,-0.267857 -0.07761,-0.155219 -0.199496,-0.28692 -0.267857,-0.446429 -0.02345,-0.05471 0.01444,-0.120824 0,-0.178571 -0.01614,-0.06456 -0.071,-0.114582 -0.08929,-0.178572 -0.04169,-0.145917 -0.036,-0.304334 -0.08929,-0.446428 -0.03542,-0.09444 -0.427176,-0.594196 -0.446428,-0.625 -0.07054,-0.112868 -0.113933,-0.240793 -0.178572,-0.357143 -0.08424,-0.151692 -0.184723,-0.294069 -0.267823,-0.44642 -0.0956,-0.17527 -0.162043,-0.366412 -0.267857,-0.535714 -0.04461,-0.07138 -0.125985,-0.112838 -0.178571,-0.178571 -0.06704,-0.08379 -0.1162,-0.180537 -0.178572,-0.267857 -0.08649,-0.121092 -0.181363,-0.236052 -0.267857,-0.357143 -0.10006,-0.140085 -0.298632,-0.449467 -0.357143,-0.625 -0.0094,-0.02823 0.02105,-0.06824 0,-0.08929 -0.02105,-0.02105 -0.06824,0.02104 -0.08929,0 -0.02105,-0.02105 0.01331,-0.06267 0,-0.08929 -0.01882,-0.03765 -0.05952,-0.05952 -0.08929,-0.08929 0,-0.05952 0.01882,-0.122103 0,-0.178572 -0.01331,-0.03993 -0.07598,-0.04936 -0.08929,-0.08929 -0.01533,-0.046 0,-0.530551 0,-0.625 0,-0.119047 0,-0.238095 0,-0.357142 0,-0.05952 0,-0.119048 0,-0.178572 0,-0.02976 -0.0072,-0.06041 0,-0.08929 0.04207,-0.168296 0.22104,-0.608947 0.267857,-0.714285 0.05406,-0.121628 0.126141,-0.234806 0.178572,-0.357143 0.03707,-0.08651 0.04086,-0.187154 0.08929,-0.267857 0.04331,-0.07218 0.125985,-0.112839 0.178572,-0.178572 0.06704,-0.08379 0.114186,-0.18201 0.178571,-0.267857 0.07576,-0.101015 0.178572,-0.178571 0.267857,-0.267857 0.05952,-0.05952 0.111228,-0.128064 0.178572,-0.178571 0.05324,-0.03993 0.123199,-0.05237 0.178571,-0.08929 0.204313,-0.136209 -0.05583,-0.07068 0.267857,-0.178572 0.02823,-0.0094 0.06824,0.02105 0.08929,0 0.02105,-0.02104 -0.02104,-0.06824 0,-0.08929 0.0036,-0.0036 0.324354,0 0.357143,0 0.02976,0 0.05952,0 0.08929,0 0.02976,0 0.06267,-0.01331 0.08929,0 0.03765,0.01882 0.05426,0.06594 0.08929,0.08929 0.01663,0.01109 0.351422,0.172851 0.357143,0.178572 0.04706,0.04706 0.04223,0.131514 0.08929,0.178571 0.07588,0.07588 0.191979,0.102693 0.267857,0.178572 0.07588,0.07588 0.1162,0.180537 0.178571,0.267857 0.08649,0.121091 0.188988,0.230953 0.267857,0.357143 0.412465,0.659943 -0.0662,0.04156 0.357143,0.803571 0.07227,0.130083 0.194027,0.22794 0.267857,0.357143 0.04669,0.08171 0.04086,0.187154 0.08929,0.267857 0.04331,0.07218 0.128064,0.111228 0.178572,0.178572 0.06245,0.08327 0.165709,0.369257 0.178571,0.446428 0,0.08929 0,0.178572 0,0.267857 0.02976,0.02976 0.08103,0.04801 0.08929,0.08929 0.02918,0.14592 0,0.297619 0,0.446429 0,0.327381 0,0.654762 0,0.982142 0,0.208334 0,0.416667 0,0.625 0,0.08929 -0.02824,0.183154 0,0.267858 0.01331,0.03993 0.07908,0.04845 0.08929,0.08929 0.04902,0.196079 -0.04902,0.428922 0,0.625 0.01021,0.04083 0.07908,0.04845 0.08929,0.08929 0.02166,0.08662 0,0.178571 0,0.267857 0,0.05952 0.01444,0.120825 0,0.178572 -0.01614,0.06456 -0.05952,0.119047 -0.08929,0.178571 0,0.14881 0.02104,0.299115 0,0.446429 -0.0094,0.06588 -0.071,0.114582 -0.08929,0.178571 -0.04169,0.145918 -0.04568,0.301072 -0.08929,0.446429 -0.504327,1.68109 0.07482,-0.567134 -0.267857,0.803571 -0.02976,0.119048 -0.05952,0.238095 -0.08929,0.357143 -0.05952,0.178571 -0.129045,0.354116 -0.178571,0.535714 -0.03993,0.146409 -0.0413,0.30246 -0.08929,0.446429 -0.192919,0.578756 -0.183658,0.124891 -0.267857,0.714286 -0.02004,0.140301 0,0.463637 0,0.625 0,0.08929 0.02823,0.183153 0,0.267857 -0.01331,0.03993 -0.07908,0.04845 -0.08929,0.08929 -0.02652,0.106082 0,0.318246 0,0.446429 0,0.287406 -0.02104,-0.15242 0.08929,0.178571 0.01882,0.05647 0,0.119048 0,0.178572 0,0.02976 0,0.05952 0,0.08929 0,0.02976 0.02105,0.06824 0,0.08929 -0.02105,0.02104 -0.08929,0.02976 -0.08929,0 0,-0.02976 0.05952,0 0.08929,0 m -0.80358,1.607141 c 0.07312,-0.299788 0.906793,-0.405487 1.071428,-0.625 0.03993,-0.05324 0.04223,-0.131514 0.08929,-0.178572 0.04706,-0.04706 0.131513,-0.04223 0.178571,-0.08929 0.04706,-0.04706 0.04771,-0.126605 0.08929,-0.178572 0.07888,-0.0986 0.178571,-0.178571 0.267857,-0.267857 0.05952,-0.05952 0.131877,-0.10853 0.178571,-0.178571 0.07383,-0.110746 0.112536,-0.241581 0.178572,-0.357143 0.05324,-0.09317 0.119047,-0.178572 0.178571,-0.267857 0.225238,-0.337858 0.478445,-0.651966 0.714286,-0.982143 0.06237,-0.08732 0.125332,-0.174688 0.178571,-0.267857 0.06604,-0.115563 0.09336,-0.254894 0.178572,-0.357143 0.0687,-0.08244 0.178571,-0.119048 0.267857,-0.178572 0.178571,-0.119047 0.368127,-0.223073 0.535714,-0.357143 0.06573,-0.05259 0.111228,-0.128063 0.178572,-0.178571 0.05324,-0.03993 0.125331,-0.04936 0.178571,-0.08929 0.386187,-0.386186 -0.02365,-0.01399 0.357143,-0.267857 0.03502,-0.02335 0.04845,-0.07908 0.08929,-0.08929 0.626586,-0.156646 0.05546,0.136979 0.357142,-0.08929 0.422196,-0.316647 0.104019,-0.07249 0.625,-0.267857 0.24925,-0.09347 0.471031,-0.24903 0.714286,-0.357143 0.146459,-0.06509 0.303076,-0.106896 0.446429,-0.178572 0.310438,-0.155219 0.588156,-0.369514 0.892857,-0.535714 0.350542,-0.191205 0.726523,-0.33452 1.071428,-0.535714 0.185381,-0.108139 0.354651,-0.241921 0.535715,-0.357143 0.146409,-0.09317 0.307596,-0.163733 0.446428,-0.267857 0.101016,-0.07576 0.171987,-0.185683 0.267857,-0.267857 0.112985,-0.09684 0.260299,-0.154873 0.357143,-0.267858 0.08662,-0.101056 0.113933,-0.240793 0.178572,-0.357143 0.08428,-0.151701 0.171594,-0.302034 0.267857,-0.446428 0.191634,-0.287451 0.286706,-0.345486 0.446428,-0.625 0.06604,-0.115563 0.119048,-0.238095 0.178572,-0.357143 0.08929,-0.178571 0.193709,-0.350345 0.267857,-0.535714 0.104042,-0.260105 0.179251,-0.537755 0.267857,-0.803572 0.02976,-0.08929 0.0472,-0.183677 0.08929,-0.267857 0.04799,-0.09598 0.123362,-0.175841 0.178571,-0.267857 0.06848,-0.114132 0.12914,-0.233563 0.178572,-0.357143 0.03495,-0.08738 0.05433,-0.180473 0.08929,-0.267857 0.02472,-0.06179 0.07623,-0.113314 0.08929,-0.178571 0.02344,-0.117204 0,-0.39376 0,-0.535715 0,-0.05952 -0.01882,-0.122102 0,-0.178571 0.01331,-0.03993 0.07598,-0.04936 0.08929,-0.08929 0.01882,-0.05647 0,-0.119047 0,-0.178571 0,-0.02976 -0.01331,-0.06267 0,-0.08929 0.11033,-0.220661 0.08929,0.03082 0.08929,-0.178571 0,-0.02976 0.01105,-0.06165 0,-0.08929 -0.0031,-0.0076 -0.145912,-0.385456 -0.267858,-0.446429 -0.02662,-0.01331 -0.06267,0.01331 -0.08929,0 -0.03765,-0.01882 -0.05164,-0.07046 -0.08929,-0.08929 -0.02662,-0.01331 -0.06824,0.02104 -0.08929,0 -0.02105,-0.02105 0.02105,-0.06824 0,-0.08929 -0.04209,-0.04209 -0.136481,0.04209 -0.178571,0 -0.02105,-0.02104 0.02105,-0.06824 0,-0.08929 -8.5e-5,-8.5e-5 -0.267453,1.35e-4 -0.267857,0 -0.07986,-0.02662 -0.103279,-0.140925 -0.178572,-0.178571 -0.05324,-0.02662 -0.136481,0.04209 -0.178571,0 -0.02105,-0.02105 0.02105,-0.06824 0,-0.08929 -0.004,-0.004 -0.404331,0 -0.446429,0 l -0.535714,0 c -0.04021,0 -0.240684,-0.01359 -0.267857,0 -0.272282,0.136141 0.163298,0.07078 -0.267857,0.178571 -0.05775,0.01444 -0.125332,-0.02662 -0.178572,0 -0.07529,0.03765 -0.111228,0.128064 -0.178571,0.178572 -0.58302,0.437265 0.421587,-0.510873 -0.446429,0.357143 l -0.446428,0.446428 c -0.08929,0.08929 -0.171987,0.185683 -0.267857,0.267857 -0.112985,0.09684 -0.251919,0.162633 -0.357143,0.267858 -0.07588,0.07588 -0.111537,0.184063 -0.178572,0.267857 -0.157759,0.197199 -0.374043,0.341709 -0.535714,0.535714 -0.0426,0.05112 -0.05505,0.121506 -0.08929,0.178571 -0.05521,0.09202 -0.111536,0.184064 -0.178571,0.267858 -0.05259,0.06573 -0.128064,0.111228 -0.178572,0.178571 -0.03993,0.05324 -0.05952,0.119048 -0.08929,0.178571 -0.05952,0.08929 -0.111537,0.184064 -0.178572,0.267858 -0.05259,0.06573 -0.131877,0.10853 -0.178571,0.178571 -0.07383,0.110745 -0.112536,0.24158 -0.178572,0.357143 -0.106479,0.186339 -0.261163,0.343756 -0.357142,0.535714 -0.04209,0.08418 -0.04259,0.186142 -0.08929,0.267857 -0.07383,0.129203 -0.181364,0.236052 -0.267857,0.357143 -0.124743,0.174641 -0.250664,0.349375 -0.357143,0.535714 -0.132072,0.231126 -0.216058,0.48855 -0.357143,0.714286 -0.07887,0.12619 -0.188988,0.230953 -0.267857,0.357143 -0.26187,0.418991 -0.07627,0.273915 -0.357143,0.625 -0.05259,0.06573 -0.140925,0.103279 -0.178571,0.178572 -0.05488,0.109756 -0.04095,0.244353 -0.08929,0.357142 -0.194617,0.454106 -0.126737,0.100819 -0.357143,0.446429 -0.07383,0.110745 -0.112536,0.24158 -0.178571,0.357143 -0.05324,0.09317 -0.121699,0.17686 -0.178572,0.267857 -0.09198,0.147162 -0.175881,0.299267 -0.267857,0.446429 -0.05687,0.091 -0.130582,0.171877 -0.178571,0.267857 -0.04209,0.08418 -0.0472,0.183677 -0.08929,0.267857 -0.04799,0.09598 -0.123362,0.175841 -0.178572,0.267857 -0.03424,0.05707 -0.05505,0.121506 -0.08929,0.178571 -0.05521,0.09202 -0.130582,0.171878 -0.178572,0.267858 -0.04209,0.08418 -0.04086,0.187153 -0.08929,0.267857 -0.267858,0.446428 -0.08929,0 -0.267858,0.267857 -0.03692,0.05537 -0.05952,0.119047 -0.08929,0.178571 -0.02976,0.05952 -0.07314,0.114009 -0.08929,0.178572 -0.01444,0.05775 0.02662,0.125331 0,0.178571 -0.01331,0.02662 -0.06824,-0.02105 -0.08929,0 -0.01825,0.01825 0.0177,0.232456 0,0.267857 -0.01882,0.03765 -0.06594,0.05426 -0.08929,0.08929 -0.03692,0.05537 -0.05237,0.123199 -0.08929,0.178571 -0.02335,0.03502 -0.06594,0.05427 -0.08929,0.08929 -0.03691,0.05537 -0.05952,0.119048 -0.08929,0.178572 -0.02976,0.05952 -0.06824,0.115436 -0.08929,0.178571 -0.0094,0.02824 0.01331,0.06267 0,0.08929 -0.01882,0.03765 -0.06594,0.05427 -0.08929,0.08929 -0.216218,0.324327 0.02615,0.06314 -0.178571,0.267858 -0.02976,0.02976 -0.07046,0.05164 -0.08929,0.08929 -0.01331,0.02662 0.02976,0.08929 0,0.08929 -0.02976,0 -0.02976,-0.08929 0,-0.08929 0.02976,0 0,0.05952 0,0.08929 m 1.33934,-26.696408 c 0,0.297619 0,0.595238 0,0.892857 0,0.08929 0.02823,0.183154 0,0.267858 -0.01331,0.03993 -0.07046,0.05164 -0.08929,0.08929 -0.01331,0.02662 0.0094,0.06105 0,0.08929 -0.02105,0.06313 -0.07314,0.114009 -0.08929,0.178571 -0.02312,0.09249 0,0.254763 0,0.357143 0,0.208334 0,0.416667 0,0.625 0,0.06329 -0.01154,0.51263 0,0.535715 0.01882,0.03765 0.07046,0.05164 0.08929,0.08929 0.04209,0.08418 0.05433,0.180473 0.08929,0.267857 0.02472,0.06179 0.06457,0.116782 0.08929,0.178572 0.03495,0.08738 0.05433,0.180473 0.08929,0.267857 0.05564,0.139094 0.184008,0.341617 0.267857,0.446429 0.105173,0.131466 0.238095,0.238095 0.357143,0.357142 0.08929,0.08929 0.178571,0.178572 0.267857,0.267858 0.08929,0.08929 0.169258,0.188977 0.267857,0.267857 0.05197,0.04157 0.121506,0.05505 0.178572,0.08929 0.09202,0.05521 0.175841,0.123362 0.267857,0.178572 0.114132,0.06848 0.238095,0.119048 0.357143,0.178571 0.05952,0.02976 0.115437,0.06824 0.178571,0.08929 0.02824,0.0094 0.06824,-0.02105 0.08929,0 0.02105,0.02104 -0.02105,0.06824 0,0.08929 0.04209,0.04209 0.125332,-0.02662 0.178571,0 0.03765,0.01882 0.05164,0.07046 0.08929,0.08929 0.168359,0.08418 0.360946,0.108665 0.535714,0.178572 0.06179,0.02472 0.123199,0.05237 0.178572,0.08929 0.03502,0.02335 0.04845,0.07908 0.08929,0.08929 0.08662,0.02165 0.181238,-0.02166 0.267858,0 0.04083,0.01021 0.04845,0.07908 0.08929,0.08929 0.08662,0.02165 0.178572,0 0.267857,0 0.14881,0 0.297619,0 0.446429,0 0.02122,0 0.337131,0.01001 0.357143,0 0.03765,-0.01882 0.05952,-0.05952 0.08929,-0.08929 0.05952,-0.05952 0.128063,-0.111228 0.178571,-0.178571 0.03993,-0.05324 0.05237,-0.123199 0.08929,-0.178572 0.108913,-0.163369 0.113834,-0.0089 0.178571,-0.267857 0.01444,-0.05775 -0.01882,-0.122102 0,-0.178571 0.01331,-0.03993 0.05952,-0.05952 0.08929,-0.08929 0.02976,-0.05952 0.07623,-0.113314 0.08929,-0.178571 5.17e-4,-0.0026 -0.01606,-0.41431 0,-0.446429 0.136141,-0.272282 0.07078,0.163299 0.178571,-0.267857 0.01444,-0.05775 0,-0.119048 0,-0.178571 0,-0.05952 0,-0.119048 0,-0.178572 0,-0.178571 0,-0.357143 0,-0.535714 0,-0.14881 0,-0.297619 0,-0.446429 0,-0.02976 0,-0.05952 0,-0.08929 0,-0.02976 0.01331,-0.06267 0,-0.08929 -0.01882,-0.03765 -0.06594,-0.05427 -0.08929,-0.08929 -0.01109,-0.01663 -0.17285,-0.351421 -0.178571,-0.357143 -0.04706,-0.04706 -0.131514,-0.04223 -0.178572,-0.08929 -0.09412,-0.09412 -0.08446,-0.263028 -0.178571,-0.357143 -0.04706,-0.04706 -0.123199,-0.05237 -0.178571,-0.08929 -0.03502,-0.02335 -0.05952,-0.05952 -0.08929,-0.08929 -0.02976,-0.02976 -0.06594,-0.05426 -0.08929,-0.08929 -0.06547,-0.09821 -0.206324,-0.474182 -0.267857,-0.535715 -0.05469,-0.05469 -0.23367,-0.07601 -0.267857,-0.178571 -0.01882,-0.05647 0.02662,-0.125332 0,-0.178572 -0.01331,-0.02662 -0.06824,0.02104 -0.08929,0 -0.02104,-0.02104 0.02105,-0.06824 0,-0.08929 -0.02104,-0.02105 -0.06824,0.02104 -0.08929,0 -0.02104,-0.02105 0.02104,-0.06824 0,-0.08929 -0.02104,-0.02105 -0.06824,0.02105 -0.08929,0 -0.04209,-0.04209 0.02662,-0.125332 0,-0.178571 -0.05357,-0.107143 -0.214286,-0.160715 -0.267857,-0.267858 -0.02662,-0.05324 0.04209,-0.136481 0,-0.178571 -0.02105,-0.02105 -0.06824,0.02105 -0.08929,0 -0.04209,-0.04209 0.04209,-0.136482 0,-0.178571 -0.02105,-0.02104 -0.06824,0.02104 -0.08929,0 -0.04464,-0.04464 0.04464,-0.223215 0,-0.267858 -0.02104,-0.02104 -0.06824,0.02104 -0.08929,0 -0.04209,-0.04209 0.04209,-0.136481 0,-0.178571 -0.02104,-0.02105 -0.06824,0.02105 -0.08929,0 -0.02105,-0.02105 0.02105,-0.06824 0,-0.08929 -0.02105,-0.02104 -0.06824,0.02105 -0.08929,0 -0.02105,-0.02104 0.01331,-0.06267 0,-0.08929 -0.01882,-0.03765 -0.07046,-0.05164 -0.08929,-0.08929 -0.01331,-0.02662 0.02105,-0.06824 0,-0.08929 -0.119047,-0.119047 -0.08929,0.14881 -0.08929,-0.08929 m -0.17856,0.178596 c -0.294788,0.115332 -0.586033,0.08929 -0.892857,0.08929 -0.05867,0 -0.217482,0.01679 -0.267857,0 -0.06313,-0.02104 -0.115437,-0.06824 -0.178572,-0.08929 -0.05647,-0.01882 -0.136481,0.04209 -0.178571,0 -0.02105,-0.02105 0.02105,-0.06824 0,-0.08929 -0.04209,-0.04209 -0.122102,0.01882 -0.178571,0 -0.323687,-0.107895 -0.06354,-0.04236 -0.267858,-0.178571 -0.05537,-0.03692 -0.121505,-0.05505 -0.178571,-0.08929 C 25.175837,18.110555 25.085846,18.051578 25,17.987194 c -0.06734,-0.05051 -0.103279,-0.140926 -0.178572,-0.178572 -0.02662,-0.01331 -0.06267,0.01331 -0.08929,0 -0.03765,-0.01882 -0.05164,-0.07046 -0.08929,-0.08929 -0.02662,-0.01331 -0.06824,0.02104 -0.08929,0 -0.02105,-0.02104 0.02105,-0.06824 0,-0.08929 -0.02105,-0.02105 -0.06267,0.01331 -0.08929,0 -0.107143,-0.05357 -0.160715,-0.214286 -0.267858,-0.267857 -0.02662,-0.01331 -0.06267,0.01331 -0.08929,0 -0.371586,-0.185793 0.09545,0.0062 -0.08929,-0.178572 -0.02105,-0.02105 -0.06824,0.02105 -0.08929,0 -0.05952,-0.05953 0.05953,-0.119046 0,-0.178571 -0.02105,-0.02105 -0.06824,0.02104 -0.08929,0 -0.04209,-0.04209 0.04209,-0.136482 0,-0.178572 -0.02105,-0.02104 -0.06824,0.02105 -0.08929,0 -0.04209,-0.04209 0.02662,-0.125331 0,-0.178571 -0.01882,-0.03765 -0.07598,-0.04936 -0.08929,-0.08929 -0.0177,-0.05309 0,-0.430249 0,-0.535714 0,-0.08409 -0.01693,-0.395637 0,-0.446429 0.02662,-0.07986 0.158155,-0.0969 0.178572,-0.178571 0.02165,-0.08662 -0.02823,-0.183153 0,-0.267857 0.0094,-0.02824 0.06824,0.02104 0.08929,0 0.02105,-0.02105 -0.01331,-0.06267 0,-0.08929 0.01882,-0.03765 0.05952,-0.05952 0.08929,-0.08929 0.05952,-0.05952 0.128064,-0.111228 0.178571,-0.178571 0.03993,-0.05324 0.04223,-0.131514 0.08929,-0.178572 0.04706,-0.04706 0.131514,-0.04223 0.178572,-0.08929 0.04706,-0.04706 0.04223,-0.131514 0.08929,-0.178572 0.04706,-0.04706 0.119048,-0.05952 0.178572,-0.08929 0.05952,-0.02976 0.119047,-0.05952 0.178571,-0.08929 0.05952,-0.02976 0.119048,-0.05952 0.178572,-0.08929 0.02976,-0.02976 0.05164,-0.07046 0.08929,-0.08929 0.02717,-0.01359 0.227647,0 0.267857,0 0.178572,0 0.357143,0 0.535715,0 0.08651,0 0.482475,-0.01775 0.535714,0 0.323687,0.107896 0.06354,0.04236 0.267857,0.178572 0.480859,0.320572 -0.123716,-0.142001 0.357143,0.178571 0.07004,0.04669 0.103279,0.140926 0.178571,0.178572 0.02662,0.01331 0.06824,-0.02105 0.08929,0 0.02105,0.02104 -0.02104,0.06824 0,0.08929 0.04209,0.04209 0.136482,-0.04209 0.178572,0 0.02104,0.02104 -0.02105,0.06824 0,0.08929 0.02104,0.02105 0.06824,-0.02105 0.08929,0 0.02105,0.02105 -0.01331,0.06267 0,0.08929 0.03765,0.07529 0.140926,0.103279 0.178572,0.178571 0.01331,0.02662 -0.02105,0.06824 0,0.08929 0.02105,0.02105 0.06824,-0.02105 0.08929,0 0.02104,0.02105 -0.02104,0.06824 0,0.08929 0.02104,0.02104 0.06824,-0.02105 0.08929,0 0.02105,0.02104 -0.02104,0.06824 0,0.08929 0.02105,0.02104 0.06824,-0.02104 0.08929,0 0.04209,0.04209 -0.02662,0.125332 0,0.178572 0.03765,0.07529 0.140925,0.103279 0.178571,0.178571 0.01331,0.02662 -0.01331,0.06267 0,0.08929 0.01882,0.03765 0.07046,0.05164 0.08929,0.08929 0.0023,0.0047 0.0023,0.263186 0,0.267857 -0.01882,0.03765 -0.07046,0.05164 -0.08929,0.08929 -0.01331,0.02662 0.01331,0.06267 0,0.08929 -0.01882,0.03765 -0.07365,0.05021 -0.08929,0.08929 -0.04557,0.113935 -0.03441,0.247386 -0.08929,0.357143 -0.03765,0.07529 -0.135262,0.106388 -0.178572,0.178571 -0.170716,0.512149 0.02629,0.05424 -0.267857,0.446429 -0.03993,0.05324 -0.05952,0.119047 -0.08929,0.178571 -0.05952,0.05952 -0.128064,0.111228 -0.178572,0.178572 -0.196711,0.04496 -0.0472,0.183677 -0.08929,0.267857 -0.01882,0.03765 -0.05952,0.05952 -0.08929,0.08929 -0.02976,0.02976 -0.05164,0.07046 -0.08929,0.08929 -0.02662,0.01331 -0.05952,0 -0.08929,0 m -2.142827,-1.696433 c 0,0.119047 0.01957,0.239715 0,0.357143 -0.01094,0.06564 -0.06457,0.116781 -0.08929,0.178571 -0.15455,0.386377 -0.0295,0.23757 -0.267857,0.714286 -0.322144,0.644288 -0.04408,-0.157664 -0.357143,0.625 -0.166685,0.416712 -0.16194,0.591737 -0.357142,0.982143 -0.04799,0.09598 -0.130582,0.171877 -0.178572,0.267857 -0.228003,0.570008 -0.106895,0.303076 -0.357143,0.803571 -0.05952,0.119048 -0.101209,0.248836 -0.178571,0.357143 -0.07339,0.102749 -0.194465,0.165108 -0.267857,0.267857 -0.154725,0.216615 -0.186727,0.509786 -0.357143,0.714286 -0.0687,0.08244 -0.191979,0.102693 -0.267857,0.178571 -0.105225,0.105225 -0.162633,0.251919 -0.267857,0.357143 -0.07588,0.07588 -0.178572,0.119048 -0.267858,0.178572 -0.178571,0.119047 -0.351682,0.246723 -0.535714,0.357142 -0.114132,0.06848 -0.243011,0.110093 -0.357143,0.178572 -0.09202,0.05521 -0.171878,0.130582 -0.267857,0.178571 -0.09884,0.04942 -0.548714,0.169036 -0.625,0.178572 -0.206724,0.02584 -0.416667,0 -0.625,0 -0.119048,0 -0.240407,0.02335 -0.357143,0 -0.09229,-0.01846 -0.177363,-0.06343 -0.267857,-0.08929 -0.11799,-0.03371 -0.242244,-0.0462 -0.357143,-0.08929 -0.387183,-0.145193 -0.724156,-0.407954 -1.071428,-0.625 -0.966121,-0.603825 0.02862,0.05871 -0.803572,-0.535714 -0.0087,-0.0062 -0.534452,-0.355881 -0.535714,-0.357143 -0.06569,-0.06569 -0.161137,-0.394126 -0.178572,-0.446428 -0.02976,-0.08929 -0.07381,-0.175023 -0.08929,-0.267858 -0.01468,-0.08807 0,-0.178571 0,-0.267857 0,-0.148809 0,-0.297619 0,-0.446428 0,-0.14881 0,-0.297619 0,-0.446429 0,-0.05952 0,-0.119047 0,-0.178571 0,-0.02976 -0.0094,-0.06105 0,-0.08929 0.02908,-0.08725 0.350323,-0.704738 0.357143,-0.714286 0.07339,-0.102749 0.187021,-0.170854 0.267857,-0.267857 0.344433,-0.413319 -0.01006,-0.14444 0.446428,-0.535714 0.399882,-0.342756 0.281055,-0.205745 0.714286,-0.446429 0.151702,-0.08428 0.285301,-0.203406 0.446429,-0.267857 0.140902,-0.05636 0.301072,-0.04568 0.446428,-0.08929 0.153514,-0.04605 0.295805,-0.123799 0.446429,-0.178571 0.176898,-0.06433 0.357143,-0.119048 0.535714,-0.178571 0.178572,-0.05952 0.354116,-0.129045 0.535714,-0.178572 0.292819,-0.07986 0.596572,-0.11273 0.892858,-0.178571 0.119789,-0.02662 0.239152,-0.05558 0.357142,-0.08929 0.09049,-0.02585 0.174688,-0.07598 0.267858,-0.08929 0.117851,-0.01684 0.240407,0.02335 0.357142,0 0.04127,-0.0083 0.04845,-0.07908 0.08929,-0.08929 0.115493,-0.02887 0.238095,0 0.357143,0 0.287406,0 -0.15242,0.02104 0.178571,-0.08929 0.05647,-0.01882 0.122103,0.01882 0.178572,0 0.03993,-0.01331 0.04936,-0.07598 0.08929,-0.08929 0.048,-0.016 0.281549,0 0.357142,0 0.238096,0 0.476191,0 0.714286,0 0.02976,0 0.05952,0 0.08929,0 0.02976,0 0.06824,-0.02105 0.08929,0 0.02104,0.02105 -0.02105,0.06824 0,0.08929 0.0036,0.0036 0.324353,0 0.357142,0 0.02976,0 0.08929,-0.02976 0.08929,0 0,0.02976 -0.05952,0 -0.08929,0 -0.209391,0 0.04209,0.02105 -0.178571,-0.08929 -0.05324,-0.02662 -0.136482,0.04209 -0.178571,0 -0.02105,-0.02105 0.02104,-0.06824 0,-0.08929 -0.04464,-0.04464 -0.223215,0.04464 -0.267858,0 -0.02104,-0.02104 0.02104,-0.06824 0,-0.08929 -0.01825,-0.01825 -0.232456,0.0177 -0.267857,0 -0.03765,-0.01882 -0.05427,-0.06594 -0.08929,-0.08929 -0.234047,-0.156031 -0.156031,-0.03337 -0.446429,-0.178571 -0.09598,-0.04799 -0.171878,-0.130582 -0.267857,-0.178572 -0.08418,-0.04209 -0.179734,-0.05624 -0.267857,-0.08929 -0.150068,-0.05628 -0.294381,-0.127888 -0.446429,-0.178571 -0.171644,-0.05721 -0.453028,-0.09258 -0.625,-0.178571 -0.191958,-0.09598 -0.349375,-0.250664 -0.535714,-0.357143 -0.115563,-0.06604 -0.241581,-0.112536 -0.357143,-0.178572 -0.09317,-0.05324 -0.178571,-0.119047 -0.267857,-0.178571 -0.152091,-0.101394 -0.514253,-0.335681 -0.625,-0.446429 -0.04706,-0.04706 -0.05952,-0.119047 -0.08929,-0.178571 -0.08929,-0.08929 -0.169257,-0.188978 -0.267857,-0.267857 -0.05197,-0.04157 -0.125332,-0.04936 -0.178572,-0.08929 -0.312425,-0.234319 -0.07231,-0.09641 -0.267857,-0.357143 -0.05051,-0.06734 -0.112838,-0.125985 -0.178571,-0.178571 -0.05979,-0.04783 -0.287325,-0.16313 -0.357143,-0.267857 -0.03691,-0.05537 -0.05952,-0.119048 -0.08929,-0.178572 -0.05952,-0.05952 -0.128063,-0.111228 -0.178571,-0.178571 -0.03993,-0.05324 -0.05952,-0.119048 -0.08929,-0.178572 -0.05952,-0.119047 -0.112535,-0.24158 -0.178571,-0.357143 -0.05324,-0.09317 -0.136301,-0.169225 -0.178572,-0.267857 -0.113771,-0.265466 -0.08929,-0.526817 -0.08929,-0.803571 0,-0.365422 0.02104,0.262751 -0.08929,-0.178572 -0.02165,-0.08662 0,-0.178571 0,-0.2678566 0,-0.02976 -0.0094,-0.06105 0,-0.08929 0.02105,-0.06313 0.05237,-0.123199 0.08929,-0.178572 0.02335,-0.03502 0.07597,-0.04936 0.08929,-0.08929 0.01882,-0.05647 -0.01882,-0.122102 0,-0.178571 0.01331,-0.03993 0.06594,-0.05427 0.08929,-0.08929 0.03692,-0.05537 0.05505,-0.121505 0.08929,-0.178571 0.05521,-0.09202 0.123362,-0.175841 0.178571,-0.267857 0.03424,-0.05707 0.04936,-0.125332 0.08929,-0.178572 0.05051,-0.06734 0.119048,-0.119047 0.178571,-0.178571 0.02976,-0.02976 0.05426,-0.06594 0.08929,-0.08929 0.05537,-0.03691 0.125332,-0.04936 0.178571,-0.08929 0.101016,-0.07576 0.162795,-0.197815 0.267858,-0.267857 0.05537,-0.03692 0.119047,-0.05952 0.178571,-0.08929 0.05952,-0.02976 0.114009,-0.07315 0.178571,-0.08929 0.05775,-0.01444 0.119048,0 0.178572,0 0.02976,0 0.06267,0.01331 0.08929,0 0.03765,-0.01882 0.04936,-0.07598 0.08929,-0.08929 0.04068,-0.01356 0.564535,0 0.625,0 0.14881,0 0.297619,0 0.446429,0 0.05952,0 0.120825,-0.01444 0.178571,0 0.06456,0.01614 0.113314,0.07623 0.178572,0.08929 0.14592,0.02918 0.297619,0 0.446428,0 0.02976,0 0.06105,-0.0094 0.08929,0 0.07883,0.02628 0.465062,0.220756 0.535714,0.267857 0.03502,0.02335 0.05952,0.05952 0.08929,0.08929 0.02976,0.02976 0.05427,0.06594 0.08929,0.08929 0.249949,0.166633 0.136465,-0.008 0.357143,0.267858 0.162031,0.10439 0.163733,0.307596 0.267857,0.446428 0.05051,0.06734 0.125985,0.112839 0.178571,0.178572 0.06704,0.08379 0.111537,0.184063 0.178572,0.267857 0.05259,0.06573 0.128063,0.111228 0.178571,0.178571 0.07986,0.10648 0.110092,0.243011 0.178572,0.3571426 0.05521,0.09202 0.119047,0.178571 0.178571,0.267857 0.05952,0.08929 0.111537,0.184064 0.178571,0.267857 0.05259,0.06573 0.135262,0.106388 0.178572,0.178572 0.04842,0.0807 0.04086,0.187154 0.08929,0.267857 0.04331,0.07218 0.128063,0.111228 0.178571,0.178571 0.03993,0.05324 0.05505,0.121506 0.08929,0.178572 0.125774,0.209623 0.186219,0.242333 0.267857,0.446428 0.03495,0.08738 0.0472,0.183678 0.08929,0.267857 0.01882,0.03765 0.05952,0.05952 0.08929,0.08929 0.02976,0.05952 0.06457,0.116782 0.08929,0.178572 0.03495,0.08738 0.05433,0.180473 0.08929,0.267857 0.04943,0.123579 0.136481,0.230874 0.178571,0.357143 0.03881,0.116414 0.06522,0.236814 0.08929,0.357142 0.01426,0.0713 -0.02401,0.309121 0,0.357143 0.01882,0.03765 0.07598,0.04936 0.08929,0.08929 0.01882,0.05647 0,0.119048 0,0.178571 0,0.02976 0.02104,0.06824 0,0.08929 -0.02105,0.02105 -0.06824,-0.02105 -0.08929,0 -0.0036,0.0036 0,0.324354 0,0.357143 0,0.03279 0.0036,0.35355 0,0.357143 -0.02105,0.02105 -0.06824,-0.02105 -0.08929,0 -0.02443,0.02443 0.02422,0.308706 0,0.357143 -0.01882,0.03765 -0.08929,0.0472 -0.08929,0.08929 0,0.02976 0.06824,0.02104 0.08929,0 0.04209,-0.04209 -0.04209,-0.136481 0,-0.178571 0.02105,-0.02105 0.06824,0.02105 0.08929,0 0.04464,-0.04464 -0.04464,-0.223214 0,-0.267857 0.02105,-0.02105 0.06824,0.02105 0.08929,0 0.02943,-0.02943 -0.02154,-0.292532 0,-0.357143 0.01331,-0.03993 0.07597,-0.04936 0.08929,-0.08929 0.01882,-0.05647 0,-0.119047 0,-0.178571 0,-0.02976 -0.01331,-0.06267 0,-0.08929 0.113417,-0.226834 0.106712,0.09144 0.178572,-0.267857 0.01751,-0.08755 -0.02165,-0.181237 0,-0.267857 0.01021,-0.04083 0.06594,-0.05427 0.08929,-0.08929 0.03691,-0.05537 0.06824,-0.115437 0.08929,-0.178571 0.03881,-0.116415 0.04371,-0.243208 0.08929,-0.357143 0.01563,-0.03908 0.07908,-0.04845 0.08929,-0.08929 0.01604,-0.06416 0,-0.437266 0,-0.535714 0,-0.05952 -0.01444,-0.120825 0,-0.178572 0.01614,-0.06456 0.07315,-0.114008 0.08929,-0.178571 0.01444,-0.05775 -0.01444,-0.120825 0,-0.178571 0.03228,-0.129126 0.14629,-0.228018 0.178572,-0.357143 0.01444,-0.05775 -0.01882,-0.122102 0,-0.178572 0.01331,-0.03993 0.07365,-0.05021 0.08929,-0.08929 0.04557,-0.113935 0.05557,-0.239153 0.08929,-0.357143 0.02586,-0.0905 0.07381,-0.175023 0.08929,-0.267857 0.01468,-0.08807 -0.02165,-0.181238 0,-0.267858 0.01021,-0.04083 0.06403,-0.05561 0.08929,-0.08929 0.06438,-0.08585 0.130581,-0.1718776 0.178571,-0.2678566 0.04209,-0.08418 0.05433,-0.180474 0.08929,-0.267858 0.02472,-0.06179 0.06457,-0.116781 0.08929,-0.178571 0.220661,-0.551653 -0.03082,-0.02765 0.178572,-0.446429 0.02976,-0.05952 0.04936,-0.125331 0.08929,-0.178571 0.05051,-0.06734 0.128063,-0.111228 0.178571,-0.178571 0.03993,-0.05324 0.04223,-0.131514 0.08929,-0.178572 0.09412,-0.09411 0.250663,-0.09871 0.357143,-0.178571 0.332186,-0.24914 0.0094,-0.138646 0.446428,-0.357143 0.08418,-0.04209 0.183678,-0.0472 0.267857,-0.08929 0.09602,-0.04801 0.31279,-0.234447 0.446429,-0.267857 0.129318,-0.03233 0.406527,0.02584 0.535714,0 0.646078,-0.129216 -0.40806,-0.08929 0.446429,-0.08929 0.148809,0 0.297619,0 0.446428,0 0.05952,0 0.120825,0.01444 0.178572,0 0.06456,-0.01614 0.113314,-0.07623 0.178571,-0.08929 0.08755,-0.01751 0.178572,0 0.267857,0 0.14881,0 0.297619,0 0.446429,0 0.02976,0 0.06824,-0.02105 0.08929,0 0.02104,0.02104 -0.02105,0.06824 0,0.08929 0.02104,0.02104 0.06267,-0.01331 0.08929,0 0.03765,0.01882 0.05561,0.06403 0.08929,0.08929 0.08585,0.06438 0.184064,0.111537 0.267857,0.178571 0.239535,0.191628 0.15089,0.188613 0.357143,0.446429 0.05259,0.06573 0.119048,0.119048 0.178571,0.178571 0.119048,0.119048 0.238096,0.238096 0.357143,0.357143 0.05952,0.05952 0.147308,0.100413 0.178572,0.178572 0.03316,0.0829 -0.02824,0.183153 0,0.267857 0.0094,0.02823 0.06824,-0.02105 0.08929,0 0.04209,0.04209 -0.02662,0.125332 0,0.178571 0.01882,0.03765 0.07908,0.04845 0.08929,0.08929 0.02187,0.08748 0,0.482513 0,0.6249996 0,0.238095 0,0.47619 0,0.714286 0,0.05952 0,0.119047 0,0.178571 0,0.05952 0.01882,0.122102 0,0.178572 -0.01331,0.03993 -0.07908,0.04845 -0.08929,0.08929 -0.02166,0.08662 0.02165,0.181238 0,0.267857 -0.01021,0.04083 -0.06594,0.05426 -0.08929,0.08929 -0.07383,0.110745 -0.110093,0.243011 -0.178572,0.357143 -0.05521,0.09202 -0.130582,0.171878 -0.178571,0.267857 -0.01331,0.02662 0.01331,0.06267 0,0.08929 -0.01882,0.03765 -0.06403,0.05561 -0.08929,0.08929 -0.12877,0.171692 -0.223073,0.368127 -0.357143,0.535714 -0.03761,0.198171 -0.251918,0.162633 -0.357143,0.267857 -0.04706,0.04706 -0.05237,0.123199 -0.08929,0.178571 -0.02335,0.03502 -0.05952,0.05952 -0.08929,0.08929 -0.02976,0.02976 -0.05427,0.06594 -0.08929,0.08929 -0.05537,0.03692 -0.123199,0.05237 -0.178571,0.08929 -0.03502,0.02335 -0.05427,0.06594 -0.08929,0.08929 -0.05537,0.03692 -0.116782,0.06457 -0.178571,0.08929 -0.08738,0.03495 -0.192565,0.03282 -0.267857,0.08929 -0.05324,0.03993 -0.04223,0.131513 -0.08929,0.178571 -0.0057,0.0057 -0.340512,0.167484 -0.357143,0.178572 -0.03502,0.02335 -0.04936,0.07598 -0.08929,0.08929 -0.04084,0.01361 -0.317412,-0.01986 -0.357143,0 -0.03765,0.01882 -0.04936,0.07598 -0.08929,0.08929 -0.06074,0.02025 -0.399086,-0.02367 -0.446429,0 -0.03765,0.01882 -0.04845,0.07908 -0.08929,0.08929 -0.01947,0.0049 -0.405803,-0.02031 -0.446428,0 -0.03765,0.01882 -0.04845,0.07908 -0.08929,0.08929 -0.07547,0.01887 -0.571852,-0.02657 -0.625,0 -0.03765,0.01882 -0.05164,0.07046 -0.08929,0.08929 -0.02662,0.01331 -0.06267,-0.01331 -0.08929,0 -0.03765,0.01882 -0.04936,0.07598 -0.08929,0.08929 -4.05e-4,1.35e-4 -0.267772,-8.5e-5 -0.267857,0 -0.02105,0.02105 0.02105,0.06824 0,0.08929 -0.02148,0.02148 -0.335658,-0.02148 -0.357143,0 -0.02105,0.02104 0.02105,0.06824 0,0.08929 -0.04209,0.04209 -0.136482,-0.04209 -0.178571,0 -0.119048,0.119048 0.148809,0.08929 -0.08929,0.08929 -0.02976,0 -0.08929,0.02976 -0.08929,0 0,-0.0105 0.254727,0.01313 0.267857,0 0.02105,-0.02105 -0.02105,-0.06824 0,-0.08929 0.02105,-0.02104 0.05952,0 0.08929,0 0.02976,0 0.05952,0 0.08929,0 0.178571,0 0.357143,0 0.535714,0 0.08929,0 0.183153,0.02824 0.267857,0 0.03993,-0.01331 0.04845,-0.07908 0.08929,-0.08929 0.115493,-0.02887 0.238095,0 0.357143,0 0.267857,0 0.535714,0 0.803571,0 0.178572,0 0.357143,0 0.535714,0 0.02976,0 0.05952,0 0.08929,0 0.02976,0 0.06267,-0.01331 0.08929,0 0.03765,0.01882 0.05164,0.07046 0.08929,0.08929 0.05324,0.02662 0.136481,-0.04209 0.178571,0 0.02105,0.02105 -0.02105,0.06824 0,0.08929 0.04209,0.04209 0.136482,-0.04209 0.178571,0 0.02104,0.02105 -0.02104,0.06824 0,0.08929 0.01825,0.01825 0.232456,-0.0177 0.267858,0 0.03765,0.01882 0.05952,0.05952 0.08929,0.08929 0.05952,0.02976 0.116782,0.06457 0.178572,0.08929 0.181498,0.0726 0.289385,0.07388 0.446428,0.178572 0.255492,0.170328 -0.136751,0.01673 0.267857,0.178571 0.898775,0.35951 -0.189571,-0.06971 0.446429,0.08929 0.244246,0.06106 0.143679,0.125548 0.357143,0.267857 0.04953,0.03302 0.125332,-0.02662 0.178571,0 0.03765,0.01882 0.05561,0.06403 0.08929,0.08929 0.08585,0.06438 0.175841,0.123361 0.267857,0.178571 0.05707,0.03424 0.121506,0.05505 0.178572,0.08929 0.09202,0.05521 0.178571,0.119047 0.267857,0.178571 0.08929,0.05952 0.184063,0.111537 0.267857,0.178572 0.131466,0.105172 0.225677,0.25197 0.357143,0.357142 0.167587,0.13407 0.383957,0.205387 0.535714,0.357143 0.07588,0.07588 0.111537,0.184064 0.178571,0.267857 0.386187,0.386187 0.01399,-0.02365 0.267858,0.357143 0.02335,0.03502 0.07046,0.05164 0.08929,0.08929 0.01331,0.02662 -0.01331,0.06267 0,0.08929 0.01882,0.03765 0.07598,0.04936 0.08929,0.08929 0.01882,0.05647 -0.02662,0.125332 0,0.178572 0.01331,0.02662 0.06824,-0.02105 0.08929,0 0.02105,0.02105 0,0.05952 0,0.08929 0,0.148809 0,0.297619 0,0.446428 0,0.08048 0.01873,0.390232 0,0.446429 -0.119048,0.357143 -0.02976,0.02976 -0.267857,0.267857 -0.04706,0.04706 -0.05237,0.123199 -0.08929,0.178571 -0.02335,0.03502 -0.06594,0.05427 -0.08929,0.08929 -0.03691,0.05537 -0.04223,0.131514 -0.08929,0.178571 -0.0057,0.0057 -0.340511,0.167484 -0.357142,0.178572 -0.03502,0.02335 -0.05427,0.06594 -0.08929,0.08929 -0.110745,0.07383 -0.243011,0.110092 -0.357143,0.178571 -0.09202,0.05521 -0.175841,0.123362 -0.267857,0.178571 -0.05707,0.03424 -0.123199,0.05237 -0.178572,0.08929 -0.03502,0.02335 -0.04936,0.07598 -0.08929,0.08929 -0.0847,0.02823 -0.178572,0 -0.267857,0 -0.238096,0 0.02976,-0.02976 -0.08929,0.08929 -0.02443,0.02443 -0.308707,-0.02422 -0.357143,0 -0.03765,0.01882 -0.05164,0.07046 -0.08929,0.08929 -0.02348,0.01174 -0.310453,0 -0.357143,0 -0.327381,0 -0.654762,0 -0.982142,0 -0.0421,0 -0.442382,0.004 -0.446429,0 -0.02105,-0.02104 0.02105,-0.06824 0,-0.08929 -0.04209,-0.04209 -0.122102,0.01882 -0.178571,0 -0.06314,-0.02104 -0.119048,-0.05952 -0.178572,-0.08929 -0.05952,-0.02976 -0.125332,-0.04936 -0.178571,-0.08929 -0.228473,-0.171354 -0.128671,-0.185788 -0.357143,-0.357143 -0.05324,-0.03993 -0.131514,-0.04223 -0.178572,-0.08929 -0.0032,-0.0032 -0.169294,-0.341681 -0.178571,-0.357143 -0.05521,-0.09202 -0.123362,-0.175841 -0.178571,-0.267857 -0.102416,-0.170694 -0.165442,-0.365021 -0.267858,-0.535715 -0.02166,-0.03609 -0.07046,-0.05164 -0.08929,-0.08929 -0.04209,-0.08418 -0.04086,-0.187154 -0.08929,-0.267858 -0.04331,-0.07218 -0.128064,-0.111227 -0.178571,-0.178571 -0.03993,-0.05324 -0.05952,-0.119048 -0.08929,-0.178571 -0.05952,-0.05952 -0.128064,-0.111228 -0.178572,-0.178572 -0.101542,-0.135326 -0.164994,-0.407079 -0.267932,-0.535751 -0.07888,-0.0986 -0.197815,-0.162795 -0.267857,-0.267857 -0.0484,-0.145199 -0.09099,-0.315053 -0.178571,-0.446429 -0.136209,-0.204313 -0.07068,0.05583 -0.178572,-0.267857 -0.0094,-0.02823 0,-0.05952 0,-0.08929 -0.02976,-0.02976 -0.07046,-0.05164 -0.08929,-0.08929 -0.01331,-0.02662 0.02104,-0.06824 0,-0.08929 -0.02105,-0.02105 -0.06824,0.02105 -0.08929,0 -0.04209,-0.04209 0.04209,-0.136482 0,-0.178572 -0.02105,-0.02104 -0.06824,0.02104 -0.08929,0 -0.02104,-0.02104 0.02105,-0.06824 0,-0.08929 -0.02104,-0.02105 -0.06824,0.02104 -0.08929,0 -0.02104,-0.02105 0.02104,-0.06824 0,-0.08929 -0.02104,-0.02105 -0.06824,0.02105 -0.08929,0 -0.167403,-0.167403 0.167403,-0.01117 0,-0.178571 -0.04209,-0.04209 -0.136482,0.04209 -0.178572,0 -0.02105,-0.02104 0.02105,-0.06824 0,-0.08929 -0.02105,-0.02105 -0.06824,0.02105 -0.08929,0 -0.02105,-0.02105 0.02104,-0.06824 0,-0.08929 -0.04209,-0.04209 -0.136482,0.04209 -0.178572,0 -0.119048,-0.119047 0.14881,-0.08929 -0.08929,-0.08929 m -9.910683,38.660749 c 0.242312,-0.133642 0.213174,-0.433042 0.357143,-0.625 0.101015,-0.134687 0.25197,-0.225677 0.357143,-0.357143 0.549627,-0.82444 -0.151757,0.189696 0.357143,-0.446429 0.134069,-0.167587 0.205386,-0.383957 0.357142,-0.535714 0.07588,-0.07588 0.200823,-0.09478 0.267858,-0.178571 0.05879,-0.07349 0.03708,-0.189549 0.08929,-0.267857 0.07004,-0.105063 0.194465,-0.165108 0.267857,-0.267858 0.653285,-0.914598 -0.357628,0.223781 0.446429,-0.714285 0.08218,-0.09587 0.197816,-0.162795 0.267857,-0.267857 0.110746,-0.166118 0.15043,-0.374251 0.267857,-0.535715 0.12378,-0.170197 0.313165,-0.28355 0.446429,-0.446428 0.205784,-0.251515 0.568697,-0.890335 0.714286,-1.160715 0.09465,-0.175785 0.167259,-0.363261 0.267857,-0.535714 0.0055,-0.0094 0.711914,-1.066685 0.714286,-1.071428 0.08418,-0.168359 0.09439,-0.367356 0.178571,-0.535715 0.37011,-0.555165 0.352123,-0.480194 0.625,-1.071428 0.09498,-0.205798 0.178571,-0.416667 0.267857,-0.625 0.08929,-0.208334 0.196181,-0.409972 0.267857,-0.625 0.05177,-0.155305 0.102276,-0.631907 0.178572,-0.803572 0.24154,-0.543465 0.303866,-0.322608 0.446428,-0.892857 0.05104,-0.204165 0.04519,-0.419223 0.08929,-0.625 0.0454,-0.21186 0.122744,-0.415646 0.178571,-0.625 0.06324,-0.237136 0.111149,-0.478306 0.178572,-0.714286 0.05171,-0.180988 0.129044,-0.354116 0.178571,-0.535714 0.11461,-0.420235 0.07648,-0.539751 0.178572,-0.982143 0.04872,-0.211121 0.122743,-0.415646 0.178571,-0.625 0.06324,-0.237136 0.115335,-0.477149 0.178572,-0.714286 0.05583,-0.209354 0.133172,-0.413139 0.178571,-0.625 0.04409,-0.205777 0.04519,-0.419223 0.08929,-0.625 0.0454,-0.21186 0.142951,-0.411278 0.178571,-0.625 0.02446,-0.146784 -0.01643,-0.298529 0,-0.446428 0.110941,-0.998466 0.08929,0.169175 0.08929,-0.625 0,-0.118387 -0.01697,-0.791048 0,-0.892857 0.01094,-0.06564 0.07987,-0.112691 0.08929,-0.178572 0.02104,-0.147314 -0.01643,-0.298529 0,-0.446428 0.01355,-0.121961 0.07818,-0.234936 0.08929,-0.357143 0.01886,-0.207478 0,-0.416667 0,-0.625 0,-0.386905 0,-0.77381 0,-1.160714 0,-0.119048 0,-0.238096 0,-0.357143 0,-0.05952 -0.0098,-0.119858 0,-0.178572 0.02017,-0.121042 0.07818,-0.234935 0.08929,-0.357143 0.01886,-0.207477 0,-0.416666 0,-0.625 0,-0.08929 -0.01263,-0.179468 0,-0.267857 0.01735,-0.121478 0.07707,-0.23504 0.08929,-0.357143 0.02961,-0.296142 -0.03692,-0.597536 0,-0.892857 0.01522,-0.121764 0.07818,-0.234935 0.08929,-0.357143 0.01886,-0.207477 0,-0.416666 0,-0.625 0,-0.119047 -0.01684,-0.239291 0,-0.357142 0.01331,-0.09317 0.07992,-0.174209 0.08929,-0.267858 0.02073,-0.207299 0,-0.416666 0,-0.625 0,-0.08929 -0.01468,-0.179786 0,-0.267857 0.01547,-0.09284 0.07889,-0.174317 0.08929,-0.267857 0.01972,-0.177479 -0.01617,-0.357876 0,-0.535714 0.01374,-0.151133 0.07668,-0.295196 0.08929,-0.446429 0.0173,-0.207613 0,-0.416666 0,-0.625 0,-0.119047 -0.01477,-0.239014 0,-0.357143 0.01522,-0.121763 0.07818,-0.234935 0.08929,-0.357142 0.01886,-0.207478 -0.01886,-0.417523 0,-0.625 0.01111,-0.122208 0.07818,-0.234936 0.08929,-0.357143 0.02694,-0.296397 0,-0.595238 0,-0.892857 0,-0.102303 0.01886,-0.690422 0,-0.803572 -0.01547,-0.09284 -0.06887,-0.175983 -0.08929,-0.267857 -0.03927,-0.176724 -0.0569,-0.3576 -0.08929,-0.535714 -0.02715,-0.149309 -0.07555,-0.295296 -0.08929,-0.446429 0,-0.178571 0,-0.357143 0,-0.535714 -0.02976,-0.08929 -0.07761,-0.174469 -0.08929,-0.267857 -0.01846,-0.147661 0.01846,-0.298768 0,-0.446429 -0.01167,-0.09339 -0.05952,-0.178571 -0.08929,-0.267857 -0.02976,-0.178571 -0.06929,-0.355787 -0.08929,-0.535714 -0.02029,-0.182562 0,-0.435069 0,-0.625 0,-0.02976 0.0094,-0.06105 0,-0.08929 -0.02105,-0.06313 -0.07314,-0.114009 -0.08929,-0.178571 -0.02312,-0.09249 0,-0.254763 0,-0.357143"
       inkscape:connector-curvature="0" />
    <rect
       style="opacity:1;fill:#ff00ff;stroke:#000000"
       id="guide"
       width="50"
       height="60"
       x="103.03571"
       y="0.48720205">
     /&gt;
  </rect>
    <path
       id="entity_zombie"
       style="fill:none;fill-rule:evenodd;stroke:#000000;stroke-width:1px;stroke-linecap:butt;stroke-linejoin:miter;stroke-opacity:1"
       d="m 84.910714,24.147919 c 0.661852,1.801874 1.558256,3.494088 2.280891,5.310914 0.641628,1.613042 0.949451,3.481339 0.397672,5.135515 -0.960458,1.372658 -1.945774,2.91549 -3.571429,3.482155 -0.714364,0.426942 -1.304949,-0.09302 -1.607168,-0.535731 m 1.071463,-18.66071 c -0.0525,0.09348 -0.171544,0.450618 -0.178572,0.535714 M 83.75,15.487205 c -0.558371,0.291595 -0.998073,-0.976688 -10e-7,-0.446428 -0.351625,0.558369 1.345552,0.713888 0.298226,0.983643 -0.58916,-0.177413 -0.237008,-0.524091 -0.744667,-0.715803 0.652599,0.519822 0.291633,-0.688013 1.07145,4e-6 m -3.571437,0.357155 c -1.128775,-1.44631 0.802773,-0.540519 -0.155607,-0.05014 -0.789358,-0.316461 -1.552195,-1.582284 -0.201515,-1.110585 0.32698,0.05036 0.259828,0.263967 0.267857,0.446437 m 1.071408,3.571431 c 0.844634,-0.425029 2.469697,-0.663281 3.127765,0.534547 0.110322,0.247105 0.417975,0.891893 0.354399,0.894037 m -1.428592,3.839273 c -0.888828,1.612189 -1.992593,3.058746 -3.125,4.508929 -0.961617,1.584782 -2.356455,2.94606 -4.375,2.723218 -1.886108,0.4286 -2.539451,-1.276983 -2.93989,-2.732123 -0.397407,-2.09618 -1.896455,-0.387814 -2.229973,0.502785 -0.450573,0.22367 -1.259182,0.783282 -1.615864,0.35433 m 14.285727,-7.053567 c -1.342885,1.260213 -1.912545,3.173815 -3.570835,4.152563 -1.538376,1.641484 -3.367023,-0.228621 -4.611593,-1.273206 -1.339137,-1.280901 -2.257464,-3.041793 -3.821182,-4.137223 -1.437128,-1.323008 -3.066745,-0.171587 -4.060929,1.049057 -0.878677,0.809547 -2.465328,1.391544 -3.31047,0.8338 l 0.08929,0 m 17.500004,14.910723 c -0.725941,0.494035 -0.03549,0.135662 -1.073702,0.845382 -1.125324,1.093015 -1.334388,1.227808 -2.40844,2.279618 -0.889142,1.418265 -1.802232,2.976016 -1.96429,4.675255 0.0096,1.227986 -0.362971,2.453924 -0.07824,3.672178 0.05938,0.768518 -0.350224,1.949745 0.07824,2.545432 m 5.446432,-14.642865 c 0.905171,1.622286 2.428598,2.980976 3.928576,4.107143 1.471897,1.198594 3.23733,2.021116 4.017866,3.839285 0.506684,1.465936 1.043484,2.699513 1.132405,4.283939 -0.105327,1.452938 0.420239,2.841798 0.385478,4.28749 0.225075,0.292689 0.01641,2.47621 -0.17858,0.982147 M 84.017857,22.183633 c -0.04062,1.196686 0.509895,2.245286 0.765113,3.436229 0.179889,1.887942 0.760946,3.755526 0.752787,5.670935 0.323372,1.119502 -1.377019,2.100024 -1.875013,3.125012 -0.44009,0.616437 -1.049253,1.808231 -1.160748,2.142872 M 82.321429,12.630062 c -1.026002,-0.448298 -2.111884,-0.453586 -3.214286,-0.446433 -1.837133,0.208241 -3.265951,1.976912 -2.321416,3.750004 1.031353,2.212525 2.783763,4.203551 5.139635,5.03508 2.090915,0.76509 4.326525,1.110926 6.556794,1.036354 1.617751,-0.458628 2.17805,-2.127463 1.964294,-3.668622 -0.196145,-1.418154 -1.266752,-2.594179 -1.964307,-3.831383 -2.066241,-1.797897 -4.689791,-3.199393 -7.500004,-3.035714 -0.0087,0.131309 -0.244431,0.215014 -0.17858,0.44645"
       inkscape:connector-curvature="0" />
  </g>
</svg>
